# xmcd CD database file
#
# Track frame offsets:
#	150
#	26869
#	43943
#	63695
#	91181
#	113435
#	140770
#	151901
#	180865
#	202513
#	249755
#
# Disc length: 3492 seconds
#
# Revision: 1
# Processed by: cddbd v1.5.2PL0 Copyright (c) Steve Scherf et al.
# Submitted via: CDex 1.70beta2
#
DISCID=840da20b
DTITLE=Musette Jazz Band - INDIFFERENCE
DYEAR=2005
DGENRE=Jazz
TTITLE0=	Germaine
TTITLE1=Cleopatra's dream
TTITLE2=Waltz for Ruth
TTITLE3=Sytle musette
TTITLE4=Antilia
TTITLE5=Caravan
TTITLE6=Rue de Charenton
TTITLE7=Little muse
TTITLE8=La Javanaise
TTITLE9=Indifference - Bouclette
TTITLE10=Un gamin de Paris
EXTD=YEAR: 2005
EXTT0=
EXTT1=
EXTT2=
EXTT3=
EXTT4=
EXTT5=
EXTT6=
EXTT7=
EXTT8=
EXTT9=
EXTT10=
PLAYORDER=
